<svg width="25" height="26" viewBox="0 0 25 26" fill="none" xmlns="http://www.w3.org/2000/svg">
<path id="Vector" d="M24.9854 19.6716C24.7626 21.3659 23.9307 22.9211 22.6453 24.0468C21.3598 25.1725 19.7087 25.7916 18.0003 25.7885C8.07515 25.7885 1.1311e-05 17.711 1.1311e-05 7.78292C-0.00305122 6.07401 0.615881 4.42241 1.74121 3.1366C2.86653 1.85079 4.4213 1.01871 6.11512 0.795757C6.54344 0.743442 6.97719 0.831096 7.35162 1.04563C7.72605 1.26017 8.02107 1.59008 8.19265 1.98613L10.8327 7.8817V7.89671C10.9641 8.19987 11.0183 8.53085 10.9906 8.8601C10.9629 9.18935 10.8541 9.50661 10.6739 9.78354C10.6514 9.8173 10.6277 9.84856 10.6027 9.87982L8.00015 12.9658C8.93641 14.8689 10.9264 16.842 12.854 17.781L15.8965 15.1915C15.9264 15.1663 15.9577 15.143 15.9903 15.1214C16.2669 14.9369 16.5852 14.8242 16.9163 14.7937C17.2474 14.7631 17.5809 14.8156 17.8866 14.9464L17.9028 14.9539L23.7917 17.5935C24.1883 17.7645 24.5189 18.0593 24.7341 18.4339C24.9493 18.8085 25.0375 19.2427 24.9854 19.6716Z" fill="white"/>
</svg>
