<svg width="33" height="34" viewBox="0 0 33 34" fill="none" xmlns="http://www.w3.org/2000/svg">
<path id="Vector" d="M18.1962 0.878496C19.4002 0.873874 20.6042 0.885978 21.8079 0.914805L22.128 0.926358C22.4975 0.939562 22.8622 0.956066 23.3027 0.975871C25.0582 1.05839 26.2561 1.33567 27.3071 1.74333C28.396 2.16254 29.3134 2.73029 30.2307 3.64793C31.0695 4.4725 31.7186 5.46993 32.1331 6.57086C32.5406 7.62219 32.8178 8.82206 32.9003 10.5781C32.9201 11.0171 32.9366 11.3835 32.9498 11.7532L32.9597 12.0734C32.989 13.2769 33.0016 14.4808 32.9976 15.6846L32.9993 16.9158V19.0779C33.0033 20.2823 32.9907 21.4867 32.9613 22.6907L32.9514 23.0109C32.9382 23.3806 32.9217 23.7453 32.9019 24.186C32.8194 25.9421 32.5389 27.1403 32.1331 28.1916C31.72 29.2937 31.0707 30.292 30.2307 31.1162C29.4057 31.9551 28.4081 32.6045 27.3071 33.0192C26.2561 33.4268 25.0582 33.7041 23.3027 33.7866C22.8622 33.8064 22.4975 33.8229 22.128 33.8361L21.8079 33.846C20.6042 33.8754 19.4002 33.888 18.1962 33.884L16.9654 33.8856H14.8056C13.6016 33.8897 12.3976 33.877 11.194 33.8477L10.8739 33.8378C10.4822 33.8236 10.0906 33.8071 9.69915 33.7883C7.94364 33.7057 6.74581 33.4252 5.69316 33.0192C4.59214 32.6055 3.59486 31.956 2.77116 31.1162C1.93143 30.2914 1.28166 29.2934 0.867158 28.1916C0.459629 27.1403 0.182443 25.9421 0.0999468 24.186C0.0815716 23.7944 0.0650723 23.4027 0.0504494 23.0109L0.0422 22.6907C0.0117815 21.4867 -0.00196925 20.2823 0.000952002 19.0779V15.6846C-0.00365286 14.4808 0.00844781 13.2769 0.0372503 12.0734L0.0487996 11.7532C0.0619989 11.3835 0.078498 11.0171 0.098297 10.5781C0.180793 8.82041 0.457978 7.62384 0.865507 6.57086C1.28025 5.46939 1.93129 4.47224 2.77281 3.64958C3.59594 2.8091 4.5926 2.15853 5.69316 1.74333C6.74581 1.33567 7.94199 1.05839 9.69915 0.975871L10.8739 0.926358L11.194 0.918106C12.3971 0.887693 13.6005 0.873938 14.804 0.876845L18.1962 0.878496ZM16.5001 9.13069C15.407 9.11523 14.3218 9.31723 13.3075 9.72496C12.2931 10.1327 11.3699 10.738 10.5915 11.5058C9.81307 12.2735 9.19494 13.1884 8.77304 14.1972C8.35113 15.2059 8.13387 16.2886 8.13387 17.3821C8.13387 18.4756 8.35113 19.5582 8.77304 20.567C9.19494 21.5758 9.81307 22.4906 10.5915 23.2584C11.3699 24.0261 12.2931 24.6314 13.3075 25.0392C14.3218 25.4469 15.407 25.6489 16.5001 25.6334C18.688 25.6334 20.7863 24.764 22.3334 23.2164C23.8805 21.6688 24.7497 19.5699 24.7497 17.3812C24.7497 15.1926 23.8805 13.0936 22.3334 11.5461C20.7863 9.99847 18.688 9.13069 16.5001 9.13069ZM16.5001 12.4316C17.1576 12.4195 17.8109 12.5385 18.4219 12.7818C19.0329 13.0251 19.5893 13.3877 20.0586 13.8485C20.5279 14.3094 20.9007 14.8591 21.1552 15.4656C21.4098 16.0722 21.5409 16.7234 21.541 17.3812C21.5411 18.039 21.4102 18.6903 21.1559 19.2969C20.9016 19.9036 20.5289 20.4534 20.0598 20.9144C19.5906 21.3754 19.0344 21.7382 18.4235 21.9817C17.8125 22.2252 17.1593 22.3445 16.5018 22.3326C15.189 22.3326 13.93 21.8109 13.0018 20.8824C12.0735 19.9538 11.552 18.6944 11.552 17.3812C11.552 16.0681 12.0735 14.8087 13.0018 13.8801C13.93 12.9516 15.189 12.4299 16.5018 12.4299L16.5001 12.4316ZM25.1622 6.65503C24.6299 6.67634 24.1265 6.90285 23.7574 7.2871C23.3884 7.67136 23.1822 8.18356 23.1822 8.71643C23.1822 9.2493 23.3884 9.7615 23.7574 10.1458C24.1265 10.53 24.6299 10.7565 25.1622 10.7778C25.7091 10.7778 26.2337 10.5605 26.6205 10.1736C27.0073 9.78668 27.2246 9.26194 27.2246 8.71478C27.2246 8.16763 27.0073 7.64288 26.6205 7.25599C26.2337 6.86909 25.7091 6.65173 25.1622 6.65173V6.65503Z" fill="white"/>
</svg>
