<svg width="24" height="31" viewBox="0 0 24 31" fill="none" xmlns="http://www.w3.org/2000/svg">
<path id="Vector" d="M12 0.819214C8.81856 0.822901 5.76849 2.06616 3.51887 4.27628C1.26925 6.4864 0.003766 9.4829 1.27668e-05 12.6085C-0.00379766 15.1627 0.845445 17.6476 2.41746 19.682C2.41746 19.682 2.74474 20.1054 2.79819 20.1665L12 30.8282L21.2062 20.1611C21.2542 20.1043 21.5825 19.682 21.5825 19.682L21.5836 19.6788C23.1549 17.6453 24.0037 15.1615 24 12.6085C23.9962 9.4829 22.7307 6.4864 20.4811 4.27628C18.2315 2.06616 15.1814 0.822901 12 0.819214ZM12 16.8955C11.137 16.8955 10.2933 16.644 9.5757 16.173C8.8581 15.7019 8.2988 15.0324 7.96853 14.249C7.63826 13.4657 7.55184 12.6037 7.72021 11.7721C7.88859 10.9405 8.30418 10.1766 8.91445 9.5771C9.52471 8.97755 10.3022 8.56926 11.1487 8.40384C11.9952 8.23843 12.8725 8.32332 13.6699 8.64779C14.4672 8.97227 15.1487 9.52175 15.6282 10.2267C16.1077 10.9317 16.3636 11.7606 16.3636 12.6085C16.3622 13.745 15.902 14.8346 15.084 15.6383C14.2659 16.4419 13.1569 16.8941 12 16.8955Z" fill="white"/>
</svg>
