<svg width="21" height="18" viewBox="0 0 21 18" fill="none" xmlns="http://www.w3.org/2000/svg">
<path id="Vector" d="M6.65813e-09 5.62301L10.1697 10.8578C10.2717 10.9102 10.385 10.9377 10.5 10.9377C10.615 10.9377 10.7283 10.9102 10.8303 10.8578L21 5.62396V14.717C21.0001 15.5012 20.6969 16.2558 20.1527 16.8258C19.6085 17.3959 18.8645 17.7382 18.0734 17.7826L17.8977 17.7873H3.10227C2.30987 17.7874 1.54748 17.4873 0.971507 16.9487C0.395532 16.4101 0.0496351 15.6738 0.00477284 14.8908L6.65813e-09 14.717V5.62301ZM3.10227 0.782227H17.8977C18.6901 0.782175 19.4525 1.08223 20.0285 1.62083C20.6045 2.15944 20.9504 2.89577 20.9952 3.67876L21 3.85259V4.02642L10.5 9.43027L6.65813e-09 4.02642V3.85259C-5.18764e-05 3.06834 0.30312 2.31379 0.847323 1.74374C1.39153 1.17369 2.1355 0.831351 2.92664 0.78695L3.10227 0.782227Z" fill="#2F96FF"/>
</svg>
