<svg width="105" height="95" viewBox="0 0 105 95" fill="none" xmlns="http://www.w3.org/2000/svg">
<rect width="105" height="95" fill="#1E1E1E"/>
<g id="Avatar maker" clip-path="url(#clip0_0_1)">
<rect width="1440" height="3330" transform="translate(-238 -1788)" fill="#14003B"/>
<g id="Ellipse 40" opacity="0.3" filter="url(#filter0_f_0_1)">
<circle cx="184.5" cy="-604.5" r="296.5" fill="#007FFF"/>
</g>
<g id="Rectangle 4" opacity="0.12" filter="url(#filter1_d_0_1)">
<rect x="-148" y="-52" width="407" height="356" rx="20" fill="white"/>
</g>
<g id="Mask group">
<mask id="mask0_0_1" style="mask-type:luminance" maskUnits="userSpaceOnUse" x="0" y="0" width="105" height="95">
<g id="Group">
<g id="Group_2">
<path id="Vector" d="M93.75 2.53772H11.25C9.06196 2.53772 6.96354 3.32813 5.41637 4.73508C3.86919 6.14202 3 8.05025 3 10.04V85.0625C3 87.0522 3.86919 88.9604 5.41637 90.3674C6.96354 91.7743 9.06196 92.5648 11.25 92.5648H93.75C95.938 92.5648 98.0365 91.7743 99.5836 90.3674C101.131 88.9604 102 87.0522 102 85.0625V10.04C102 8.05025 101.131 6.14202 99.5836 4.73508C98.0365 3.32813 95.938 2.53772 93.75 2.53772Z" fill="white" stroke="white" stroke-width="4.16667"/>
<path id="Vector_2" d="M30.5001 25.0444V70.058M74.5001 30.0459V70.058" stroke="black" stroke-width="4.16667" stroke-linecap="round" stroke-linejoin="round"/>
<path id="Vector_3" d="M63.5 70.0579C56.625 70.0579 52.5 66.0567 52.5 60.0549C52.5 54.0531 56.625 50.0519 63.5 50.0519H74.5V70.0579H63.5Z" stroke="black" stroke-width="4.16667" stroke-linecap="round" stroke-linejoin="round"/>
</g>
</g>
</mask>
<g mask="url(#mask0_0_1)">
<path id="Vector_4" d="M-13.5 -12.4668H118.5V107.569H-13.5V-12.4668Z" fill="white"/>
</g>
</g>
<g id="Ellipse 45" filter="url(#filter2_f_0_1)">
<circle cx="-179" cy="50" r="137" fill="#AA53C6"/>
</g>
</g>
<defs>
<filter id="filter0_f_0_1" x="-512" y="-1301" width="1393" height="1393" filterUnits="userSpaceOnUse" color-interpolation-filters="sRGB">
<feFlood flood-opacity="0" result="BackgroundImageFix"/>
<feBlend mode="normal" in="SourceGraphic" in2="BackgroundImageFix" result="shape"/>
<feGaussianBlur stdDeviation="200" result="effect1_foregroundBlur_0_1"/>
</filter>
<filter id="filter1_d_0_1" x="-165" y="-69" width="441" height="390" filterUnits="userSpaceOnUse" color-interpolation-filters="sRGB">
<feFlood flood-opacity="0" result="BackgroundImageFix"/>
<feColorMatrix in="SourceAlpha" type="matrix" values="0 0 0 0 0 0 0 0 0 0 0 0 0 0 0 0 0 0 127 0" result="hardAlpha"/>
<feOffset/>
<feGaussianBlur stdDeviation="8.5"/>
<feComposite in2="hardAlpha" operator="out"/>
<feColorMatrix type="matrix" values="0 0 0 0 0 0 0 0 0 0 0 0 0 0 0 0 0 0 0.15 0"/>
<feBlend mode="normal" in2="BackgroundImageFix" result="effect1_dropShadow_0_1"/>
<feBlend mode="normal" in="SourceGraphic" in2="effect1_dropShadow_0_1" result="shape"/>
</filter>
<filter id="filter2_f_0_1" x="-719" y="-490" width="1080" height="1080" filterUnits="userSpaceOnUse" color-interpolation-filters="sRGB">
<feFlood flood-opacity="0" result="BackgroundImageFix"/>
<feBlend mode="normal" in="SourceGraphic" in2="BackgroundImageFix" result="shape"/>
<feGaussianBlur stdDeviation="201.5" result="effect1_foregroundBlur_0_1"/>
</filter>
<clipPath id="clip0_0_1">
<rect width="1440" height="3330" fill="white" transform="translate(-238 -1788)"/>
</clipPath>
</defs>
</svg>
