<svg width="25" height="21" viewBox="0 0 25 21" fill="none" xmlns="http://www.w3.org/2000/svg">
<path id="Vector" d="M7.92635e-09 6.49705L12.1068 12.6556C12.2283 12.7173 12.3631 12.7496 12.5 12.7496C12.6369 12.7496 12.7717 12.7173 12.8932 12.6556L25 6.49816V17.1958C25.0001 18.1185 24.6391 19.0062 23.9913 19.6768C23.3434 20.3475 22.4577 20.7502 21.5159 20.8025L21.3068 20.808H3.69318C2.74984 20.8081 1.84224 20.4551 1.15656 19.8214C0.470872 19.1878 0.0590894 18.3215 0.00568196 17.4003L7.92635e-09 17.1958V6.49705ZM3.69318 0.802002H21.3068C22.2502 0.801942 23.1578 1.15495 23.8434 1.7886C24.5291 2.42225 24.9409 3.28852 24.9943 4.20969L25 4.4142V4.6187L12.5 10.9762L7.92635e-09 4.6187V4.4142C-6.17576e-05 3.49155 0.360857 2.60385 1.00872 1.9332C1.65658 1.26255 2.54227 0.859796 3.48409 0.807559L3.69318 0.802002Z" fill="white"/>
</svg>
