<svg width="18" height="21" viewBox="0 0 18 21" fill="none" xmlns="http://www.w3.org/2000/svg">
<g id="Group 7">
<path id="Vector" d="M16.7815 14.9221C15.7286 13.7244 14.4508 12.7685 13.0287 12.1147C11.6066 11.461 10.071 11.1235 8.51852 11.1235C6.96606 11.1235 5.43043 11.461 4.00833 12.1147C2.58623 12.7685 1.30848 13.7244 0.255555 14.9221C0.0929938 15.1108 0.00205905 15.3556 0 15.61V19.7378C0.00344571 20.0091 0.108521 20.2681 0.292479 20.4586C0.476438 20.6492 0.724478 20.756 0.982906 20.756H16.0541C16.3148 20.756 16.5648 20.6473 16.7491 20.4537C16.9335 20.2602 17.037 19.9977 17.037 19.7241V15.5963C17.0318 15.3466 16.9411 15.1073 16.7815 14.9221Z" fill="#2F96FF"/>
<path id="Vector_2" d="M8.51852 9.64156C11.1777 9.64156 13.3333 7.65112 13.3333 5.19578C13.3333 2.74044 11.1777 0.75 8.51852 0.75C5.85937 0.75 3.7037 2.74044 3.7037 5.19578C3.7037 7.65112 5.85937 9.64156 8.51852 9.64156Z" fill="#2F96FF"/>
</g>
</svg>
