<svg width="36" height="30" viewBox="0 0 36 30" fill="none" xmlns="http://www.w3.org/2000/svg">
<path id="Vector" d="M36 4.35264C34.647 4.93365 33.2162 5.31773 31.752 5.49294C33.2967 4.57949 34.4543 3.14246 35.01 1.44842C33.5584 2.30376 31.9694 2.9064 30.312 3.23015C29.2042 2.04097 27.7289 1.24939 26.1177 0.979561C24.5064 0.709727 22.8502 0.9769 21.4088 1.73918C19.9675 2.50146 18.8225 3.71572 18.1534 5.19154C17.4844 6.66735 17.3291 8.32124 17.712 9.89381C14.777 9.74686 11.906 8.99039 9.28558 7.67353C6.66516 6.35667 4.35392 4.50888 2.502 2.2502C1.85245 3.37299 1.51113 4.64452 1.512 5.93837C1.5097 7.13994 1.80759 8.32342 2.37916 9.38346C2.95073 10.4435 3.77823 11.3472 4.788 12.0141C3.61436 11.9825 2.46579 11.6707 1.44 11.1054V11.1945C1.4488 12.878 2.04479 14.5069 3.12717 15.8055C4.20954 17.1042 5.71186 17.9929 7.38 18.3214C6.73786 18.5148 6.07117 18.6168 5.4 18.6243C4.9354 18.6189 4.47196 18.5772 4.014 18.4996C4.48904 19.9478 5.40832 21.2134 6.64393 22.1203C7.87955 23.0272 9.37004 23.5304 10.908 23.5597C8.31097 25.5824 5.10459 26.6863 1.8 26.6955C1.19832 26.6975 0.597124 26.6618 0 26.5886C3.37397 28.7449 7.30586 29.8896 11.322 29.8848C14.0934 29.9133 16.8428 29.3949 19.4096 28.3598C21.9764 27.3247 24.309 25.7937 26.2714 23.8563C28.2337 21.9189 29.7863 19.6138 30.8386 17.0758C31.8909 14.5377 32.4217 11.8176 32.4 9.07421V8.1299C33.8125 7.08725 35.0307 5.80906 36 4.35264Z" fill="white"/>
</svg>
